<svg width="230" height="97" viewBox="0 0 230 97" fill="none" xmlns="http://www.w3.org/2000/svg">
<path d="M116.685 81.969C113.961 81.969 111.574 81.4566 109.524 80.4318C107.5 79.382 105.925 77.9322 104.8 76.0826C103.675 74.208 103.113 72.0459 103.113 69.5964C103.113 67.7217 103.438 65.997 104.088 64.4223C104.763 62.8227 105.713 61.4479 106.937 60.2981C108.162 59.1234 109.612 58.2235 111.286 57.5987C112.961 56.9488 114.811 56.6239 116.835 56.6239C118.335 56.6239 119.797 56.8238 121.222 57.2237C122.647 57.6237 123.909 58.2485 125.009 59.0984L123.772 61.5729C122.622 60.5231 121.397 59.7857 120.097 59.3608C118.822 58.9109 117.548 58.686 116.273 58.686C114.173 58.686 112.361 59.1359 110.837 60.0357C109.337 60.9355 108.162 62.1728 107.312 63.7475C106.487 65.3222 106.075 67.1343 106.075 69.1839C106.075 71.3085 106.537 73.1832 107.462 74.8078C108.412 76.4075 109.712 77.6698 111.361 78.5946C113.036 79.4944 114.961 79.9444 117.135 79.9444C118.335 79.9444 119.51 79.8069 120.66 79.5319C121.834 79.232 122.922 78.7821 123.921 78.1822L122.534 79.9069V72.2583H116.948V70.1962H125.121V79.9069C124.321 80.3568 123.447 80.7442 122.497 81.0691C121.572 81.3691 120.61 81.594 119.61 81.744C118.635 81.894 117.66 81.969 116.685 81.969ZM129.084 81.6315L136.508 64.1599H139.507L146.968 81.6315H144.269L137.558 65.2097H138.308L131.784 81.6315H129.084ZM132.834 75.5202L133.471 73.6456H142.019L142.957 75.5202H132.834ZM151.473 81.6315V64.1599H157.622C159.622 64.1599 161.172 64.5598 162.271 65.3597C163.371 66.1345 163.921 67.2968 163.921 68.8465C163.921 69.9213 163.634 70.8836 163.059 71.7334C162.509 72.5583 161.696 73.2082 160.622 73.6831C159.572 74.133 158.297 74.3579 156.797 74.3579H152.748V72.5208H157.21C158.56 72.5208 159.609 72.2083 160.359 71.5835C161.109 70.9336 161.484 70.1212 161.484 69.1464C161.484 68.1966 161.134 67.4718 160.434 66.9719C159.734 66.447 158.722 66.1845 157.397 66.1845H153.91V81.6315H151.473ZM165.121 81.894C164.321 81.894 163.646 81.744 163.096 81.4441C162.571 81.1441 162.071 80.6942 161.596 80.0943C161.147 79.4944 160.647 78.7446 160.097 77.8448L157.66 73.908L159.722 73.1582L162.196 76.9074C162.746 77.7073 163.209 78.3447 163.584 78.8196C163.959 79.2945 164.308 79.6444 164.633 79.8694C164.983 80.0943 165.396 80.2068 165.871 80.2068C166.046 80.2068 166.208 80.1943 166.358 80.1693C166.533 80.1443 166.695 80.1193 166.845 80.0943L167.145 81.594C166.77 81.694 166.421 81.769 166.096 81.819C165.771 81.869 165.446 81.894 165.121 81.894ZM176.014 81.6315H170.915V64.1599H176.464C178.514 64.1599 180.314 64.5098 181.863 65.2097C183.413 65.9096 184.625 66.8844 185.5 68.1341C186.4 69.3839 186.85 70.8461 186.85 72.5208C186.85 74.2954 186.387 75.8701 185.463 77.2449C184.538 78.6196 183.263 79.6944 181.638 80.4693C180.039 81.2441 178.164 81.6315 176.014 81.6315ZM184.15 72.8582C184.15 71.4835 183.825 70.2962 183.176 69.2964C182.551 68.2966 181.638 67.5342 180.439 67.0093C179.239 66.4845 177.802 66.222 176.127 66.222H173.502V79.5694H176.239C177.889 79.5694 179.301 79.307 180.476 78.7821C181.651 78.2572 182.551 77.4948 183.176 76.495C183.825 75.4952 184.15 74.2829 184.15 72.8582ZM192.152 81.6315V64.1599H194.701V81.6315H192.152ZM193.014 81.6315V79.6069H205.199V81.6315H193.014ZM193.014 73.8705V71.8834H202.95V73.8705H193.014ZM193.014 66.147V64.1599H204.449V66.147H193.014ZM210.202 81.6315V64.1599H212.377L212.639 81.6315H210.202ZM224.3 81.6315H223.1L211.252 65.9221V64.1599H212.789L224.225 79.2695L224.3 81.6315ZM225.724 64.1599V81.6315H223.55L223.325 64.1599H225.724Z" fill="#F0FA99"/>
<path d="M129.531 42.8389L128.481 19.4434L129.756 18.9935L119.445 40.7393H117.758L107.822 20.0808L107.86 18.1686H109.81L119.408 37.9648H118.545L127.919 18.1686H130.843L132.305 42.8389H129.531ZM105.048 42.8389L106.66 18.1686H108.685L107.598 42.8389H105.048ZM144.004 35.7527L136.581 25.3672H139.618L145.729 34.4405H144.829L150.941 25.3672H153.94L146.404 35.7527H144.004ZM143.892 42.8389V35.0029H146.479V42.8389H143.892ZM167.286 38.4147C167.286 37.7149 167.036 37.1525 166.536 36.7275C166.061 36.2776 165.436 35.9027 164.661 35.6028C163.886 35.2778 163.074 34.9779 162.224 34.7029C161.374 34.403 160.562 34.0656 159.787 33.6906C159.037 33.2907 158.412 32.7908 157.913 32.1909C157.438 31.591 157.2 30.8162 157.2 29.8664C157.2 28.4916 157.75 27.3668 158.85 26.492C159.975 25.5922 161.487 25.1423 163.386 25.1423C164.611 25.1423 165.736 25.3047 166.761 25.6297C167.811 25.9546 168.648 26.3545 169.273 26.8295L168.186 28.7791C167.511 28.2042 166.723 27.7668 165.824 27.4668C164.949 27.1669 164.074 27.0169 163.199 27.0169C161.999 27.0169 161.099 27.2919 160.5 27.8418C159.925 28.3917 159.637 28.9915 159.637 29.6414C159.637 30.2663 159.875 30.7912 160.35 31.2161C160.849 31.641 161.474 32.016 162.224 32.3409C162.999 32.6408 163.811 32.9533 164.661 33.2782C165.511 33.5782 166.323 33.9406 167.098 34.3655C167.873 34.7904 168.498 35.3153 168.973 35.9402C169.473 36.5651 169.723 37.3524 169.723 38.3022C169.723 39.702 169.123 40.8518 167.923 41.7516C166.723 42.6264 165.061 43.0638 162.937 43.0638C161.487 43.0638 160.212 42.8639 159.112 42.4639C158.013 42.039 157.088 41.5016 156.338 40.8518L157.425 38.8646C158.225 39.5645 159.125 40.1269 160.125 40.5518C161.149 40.9517 162.224 41.1517 163.349 41.1517C164.649 41.1517 165.624 40.8892 166.273 40.3643C166.948 39.8394 167.286 39.1896 167.286 38.4147ZM179.218 42.8389V25.3672H181.805V42.8389H179.218ZM172.32 27.4293V25.3672H188.667V27.4293H172.32ZM193.18 42.8389V25.3672H195.842V42.8389H193.18ZM210.565 43.0638C208.74 43.0638 207.128 42.6764 205.728 41.9015C204.329 41.1267 203.241 40.0769 202.467 38.7522C201.692 37.4024 201.304 35.9152 201.304 34.2905C201.304 32.5658 201.704 31.0161 202.504 29.6414C203.329 28.2417 204.441 27.1419 205.841 26.342C207.266 25.5422 208.878 25.1423 210.677 25.1423C211.827 25.1423 212.902 25.3172 213.902 25.6672C214.927 26.0171 215.839 26.517 216.639 27.1669L214.989 28.9665C214.389 28.3667 213.689 27.9042 212.89 27.5793C212.115 27.2544 211.302 27.0919 210.453 27.0919C209.228 27.0919 208.128 27.3793 207.153 27.9542C206.203 28.5291 205.441 29.3415 204.866 30.3913C204.316 31.4411 204.041 32.6658 204.041 34.0656C204.041 35.4403 204.316 36.6526 204.866 37.7024C205.441 38.7522 206.241 39.577 207.266 40.1769C208.29 40.7518 209.49 41.0392 210.865 41.0392C211.815 41.0392 212.677 40.9017 213.452 40.6268C214.227 40.3518 214.889 39.9519 215.439 39.427L216.714 41.1142C215.914 41.7391 214.989 42.2265 213.939 42.5764C212.915 42.9014 211.79 43.0638 210.565 43.0638Z" fill="#F0FA99"/>
<rect x="2.771" y="1.95834" width="80.5597" height="92.5537" rx="24.8044" stroke="#F0FA99" stroke-width="3.70215"/>
<path d="M62.6406 25.7811C61.4702 26.0891 60.4743 26.8437 59.6529 28.045C58.8315 29.2462 58.4208 30.5553 58.4208 31.9722C58.4208 33.1837 58.467 35.0625 58.5594 37.6088C58.6518 40.1551 58.698 42.0135 58.698 43.1839C58.698 44.6624 58.5646 45.9355 58.2976 47.0033C58.0306 48.0711 57.6868 48.9336 57.2658 49.5906C56.8448 50.2477 56.2749 50.7919 55.5563 51.2231C54.8376 51.6543 54.124 51.9675 53.4156 52.1626C52.7071 52.3576 51.8293 52.5374 50.7821 52.7016C51.6651 51.1615 52.1065 49.4982 52.1065 47.7118C52.1065 45.9253 51.7471 44.0823 51.0285 42.1829C50.3098 40.2834 49.4628 38.5535 48.4873 36.9928C47.5119 35.4322 46.4904 34.1077 45.4226 33.0194C47.4555 30.5759 49.7758 28.7431 52.3837 27.5213C54.9916 26.2995 58.4106 25.7195 62.6406 25.7811ZM45.0222 54.2725C48.2049 53.5127 49.8066 51.4593 49.8272 48.1122C49.8478 46.6953 49.5808 45.1758 49.0264 43.5535C48.4719 41.9313 47.6865 40.3092 46.67 38.6869C45.6536 37.0646 44.3651 35.5092 42.8045 34.0205C41.2438 32.5318 39.5293 31.2175 37.6606 30.0779C35.7919 28.9382 33.6512 28.0398 31.2385 27.3827C28.8257 26.7256 26.3359 26.4176 23.7691 26.4587C24.919 26.7667 25.9098 27.6343 26.7415 29.0614C27.5731 30.4885 27.9889 31.9311 27.9889 33.389C27.9889 34.6211 27.9427 36.387 27.8503 38.6869C27.7579 40.9868 27.7117 42.7117 27.7117 43.8616C27.7117 45.2374 27.9684 46.5053 28.4817 47.6655C28.9951 48.8258 29.6881 49.8063 30.5608 50.6071C31.4335 51.4079 32.4449 52.0856 33.5948 52.64C34.7447 53.1944 35.9511 53.6051 37.214 53.8721C38.4768 54.139 39.7653 54.2725 41.0796 54.2725V62.1577C40.443 61.3774 39.3803 60.5868 37.8916 59.7859C36.4029 58.9851 34.8063 58.3075 33.102 57.753C30.6789 56.9316 28.107 56.557 25.3862 56.6288C22.6654 56.7006 20.6684 57.2294 19.3953 58.2151C22.3317 62.0345 25.8123 64.4986 29.837 65.6074C33.8618 66.7163 37.6092 66.2235 41.0796 64.129V73.9855C41.0796 75.0742 41.9621 75.9568 43.0509 75.9568C44.1396 75.9568 45.0222 75.0742 45.0222 73.9855V70.0429C46.8703 70.8847 48.8056 71.3314 50.8283 71.3827C52.8509 71.4341 54.8119 71.1209 56.7113 70.4433C58.6108 69.7656 60.4332 68.7184 62.1786 67.3015C63.9241 65.8847 65.4334 64.17 66.7064 62.1577C65.7208 61.5622 64.4425 61.0898 62.8717 60.7408C61.3008 60.3918 59.5503 60.2634 57.62 60.3558C55.6897 60.4482 53.9546 60.823 52.4145 61.48C51.1209 62.0345 49.7862 62.9225 48.4103 64.1444C47.0345 65.3662 45.9052 66.5417 45.0222 67.6711V54.2725ZM55.2483 23.7482C55.2483 24.2204 54.74 24.7338 53.7236 25.2882C52.7071 25.8427 51.4803 26.3868 50.0428 26.9207C48.6054 27.4546 47.8149 27.7626 47.6711 27.8448C47.7327 27.3519 47.5223 26.9002 47.0397 26.4895C46.5571 26.0788 46.0078 25.7759 45.3918 25.5808C44.7758 25.3858 44.1957 25.201 43.6515 25.0264C43.1073 24.8519 42.825 24.7235 42.8045 24.6414C42.7018 24.395 43.2305 24.2358 44.3907 24.164C45.551 24.0921 46.7162 24.0305 47.8867 23.9792C49.0572 23.9278 49.6116 23.7995 49.55 23.5941C49.509 23.4709 49.3806 23.3631 49.165 23.2707C48.9494 23.1783 48.6619 23.1013 48.3025 23.0397C47.9431 22.9781 47.5633 22.9268 47.1629 22.8857C46.7624 22.8446 46.3312 22.8138 45.8692 22.7933C45.4072 22.7728 45.0068 22.7574 44.6679 22.7471L43.6515 22.7163C43.6515 22.7163 43.4513 22.7112 43.0509 22.7009C42.25 22.6598 40.9666 22.7214 39.2007 22.8857C37.4348 23.05 36.5928 23.3067 36.6749 23.6558C36.7366 23.9432 37.2602 24.2512 38.2458 24.5798C39.2315 24.9084 40.2941 25.2112 41.4338 25.4884C42.5734 25.7657 43.6155 26.1609 44.5601 26.6743C45.5048 27.1877 45.977 27.7729 45.977 28.43C45.977 28.6559 45.9564 28.8458 45.9154 28.9998C45.8744 29.1538 45.7716 29.3284 45.6074 29.5234C45.4432 29.7185 45.2994 29.8828 45.1762 30.0163C45.053 30.1497 44.8066 30.3757 44.4369 30.6939C44.0673 31.0121 43.7593 31.2945 43.5129 31.5409C42.5888 30.5759 41.5518 29.7647 40.4019 29.1076C39.2521 28.4505 37.7428 27.9577 35.8741 27.6291C34.4778 27.3622 33.3278 26.9105 32.4243 26.2739C31.5208 25.6373 31.0691 24.9289 31.0691 24.1486C31.0691 23.6147 31.3001 23.1475 31.7621 22.7471C32.2241 22.3467 32.8658 22.0284 33.6872 21.7923C34.5086 21.5561 35.3299 21.361 36.1513 21.207C36.9727 21.053 37.9018 20.9504 38.9389 20.899C39.9759 20.8477 40.7664 20.8117 41.3106 20.7912C41.8548 20.7707 42.4348 20.7604 43.0509 20.7604C51.1825 20.7604 55.2483 21.7563 55.2483 23.7482Z" fill="#F0FA99"/>
</svg>
